<?xml version="1.0" encoding="UTF-8" standalone="no"?>
<svg
   xmlns:dc="http://purl.org/dc/elements/1.1/"
   xmlns:cc="http://creativecommons.org/ns#"
   xmlns:rdf="http://www.w3.org/1999/02/22-rdf-syntax-ns#"
   xmlns:svg="http://www.w3.org/2000/svg"
   xmlns="http://www.w3.org/2000/svg"
   id="svg8"
   version="1.1"
   viewBox="0 0 46.110523 53.244041"
   height="53.244041mm"
   width="46.110523mm">
  <defs
     id="defs2">
    <clipPath
       clipPathUnits="userSpaceOnUse"
       id="clipPath831">
      <path
         d="M 65.354,150.928 0,113.196 V 37.732 L 64.853,0.288 65.354,0 130.707,37.732 v 75.464 z m 1.484,-50.872 v 41.192 L 84.167,111.012 75.09,95.291 Z m -20.313,10.961 17.344,30.182 v -41.143 l -8.261,-4.77 z M 36.951,127.601 60.418,141.15 44.81,113.989 Z m 33.377,13.527 23.419,-13.522 -7.864,-13.62 z m 17.263,-30.121 8.727,15.115 26.905,-15.534 -26.591,-15.352 z m -80.107,-0.419 26.896,15.529 8.721,-15.103 -9.057,-15.76 z m 29.132,-16.818 8.2,14.272 8.222,-14.239 -8.24,-4.758 z m 41.045,0.037 8.214,14.226 8.186,-14.282 -8.151,-4.706 z m 20.446,-1.147 26.6,15.358 V 76.953 H 107.109 Z M 6,108.018 32.566,92.68 23.529,76.953 H 6 Z M 66.838,96.629 73.607,92.72 66.838,80.997 Z m -9.746,-3.914 6.777,3.914 V 80.977 Z m 19.085,-1.478 6.763,-3.906 -13.527,-7.81 z m -28.41,-3.906 6.754,3.9 6.756,-11.7 z M 35.136,91.196 41.83,87.331 28.49,79.629 Z m 53.741,-3.865 6.659,3.845 6.587,-11.493 z M 85.91,85.618 100.917,76.953 H 70.901 Z m -41.112,0 15.009,-8.665 H 29.791 Z m 53.361,-27.381 9.036,15.747 h 17.512 V 42.91 Z M 70.884,73.984 h 29.998 l -14.999,-8.66 z m -41.128,0 H 59.823 L 44.789,65.305 Z M 6,73.984 H 23.443 L 32.502,58.211 6,42.91 Z m 63.385,-2.562 13.53,-7.811 -6.764,-3.905 z M 47.758,63.59 61.303,71.411 54.53,59.681 Z m 41.094,0.021 13.41,7.744 -6.674,-11.634 z M 28.378,71.353 41.821,63.59 35.073,59.695 Z M 57.101,58.197 63.869,69.919 V 54.289 Z M 66.838,69.899 73.58,58.222 66.838,54.329 Z M 77.635,57.135 85.883,61.898 94.11,57.147 85.893,42.83 Z M 36.552,57.121 44.789,61.878 53.046,57.109 44.78,42.793 Z M 87.611,39.857 96.681,55.663 123.223,40.339 96.305,24.798 Z m -20.773,11.045 8.226,4.75 9.12,-15.8 L 66.838,9.621 Z M 7.484,40.339 33.98,55.637 43.064,39.82 34.393,24.803 Z m 39.006,-0.521 9.127,15.808 8.252,-4.764 V 9.556 Z M 85.902,36.879 93.734,23.314 70.379,9.83 Z M 36.965,23.318 44.773,36.845 60.271,9.863 Z"
         id="path829" />
    </clipPath>
    <linearGradient
       x1="0"
       y1="0"
       x2="1"
       y2="0"
       gradientUnits="userSpaceOnUse"
       gradientTransform="matrix(103.08521,103.08521,103.08521,-103.08521,13.810913,23.921509)"
       spreadMethod="pad"
       id="linearGradient851">
      <stop
         style="stop-opacity:1;stop-color:#71caee"
         offset="0"
         id="stop837" />
      <stop
         style="stop-opacity:1;stop-color:#8881b8"
         offset="0.167"
         id="stop839" />
      <stop
         style="stop-opacity:1;stop-color:#ec98ba"
         offset="0.33"
         id="stop841" />
      <stop
         style="stop-opacity:1;stop-color:#ee9579"
         offset="0.5"
         id="stop843" />
      <stop
         style="stop-opacity:1;stop-color:#fcf099"
         offset="0.66"
         id="stop845" />
      <stop
         style="stop-opacity:1;stop-color:#83c59b"
         offset="0.83"
         id="stop847" />
      <stop
         style="stop-opacity:1;stop-color:#71caee"
         offset="1"
         id="stop849" />
    </linearGradient>
  </defs>
  <metadata
     id="metadata5">
    <rdf:RDF>
      <cc:Work
         rdf:about="">
        <dc:format>image/svg+xml</dc:format>
        <dc:type
           rdf:resource="http://purl.org/dc/dcmitype/StillImage" />
        <dc:title></dc:title>
      </cc:Work>
    </rdf:RDF>
  </metadata>
  <g
     transform="translate(-85.801881,-110.11608)"
     id="layer1">
    <g
       id="g823"
       transform="matrix(0.35277777,0,0,-0.35277777,85.801881,163.36012)">
      <g
         id="g825">
        <g
           id="g827"
           clip-path="url(#clipPath831)">
          <g
             id="g833">
            <g
               id="g835">
              <path
                 d="M 65.354,150.928 0,113.196 V 37.732 L 64.853,0.288 65.354,0 130.707,37.732 v 75.464 z m 1.484,-50.872 v 41.192 L 84.167,111.012 75.09,95.291 Z m -20.313,10.961 17.344,30.182 v -41.143 l -8.261,-4.77 z M 36.951,127.601 60.418,141.15 44.81,113.989 Z m 33.377,13.527 23.419,-13.522 -7.864,-13.62 z m 17.263,-30.121 8.727,15.115 26.905,-15.534 -26.591,-15.352 z m -80.107,-0.419 26.896,15.529 8.721,-15.103 -9.057,-15.76 z m 29.132,-16.818 8.2,14.272 8.222,-14.239 -8.24,-4.758 z m 41.045,0.037 8.214,14.226 8.186,-14.282 -8.151,-4.706 z m 20.446,-1.147 26.6,15.358 V 76.953 H 107.109 Z M 6,108.018 32.566,92.68 23.529,76.953 H 6 Z M 66.838,96.629 73.607,92.72 66.838,80.997 Z m -9.746,-3.914 6.777,3.914 V 80.977 Z m 19.085,-1.478 6.763,-3.906 -13.527,-7.81 z m -28.41,-3.906 6.754,3.9 6.756,-11.7 z M 35.136,91.196 41.83,87.331 28.49,79.629 Z m 53.741,-3.865 6.659,3.845 6.587,-11.493 z M 85.91,85.618 100.917,76.953 H 70.901 Z m -41.112,0 15.009,-8.665 H 29.791 Z m 53.361,-27.381 9.036,15.747 h 17.512 V 42.91 Z M 70.884,73.984 h 29.998 l -14.999,-8.66 z m -41.128,0 H 59.823 L 44.789,65.305 Z M 6,73.984 H 23.443 L 32.502,58.211 6,42.91 Z m 63.385,-2.562 13.53,-7.811 -6.764,-3.905 z M 47.758,63.59 61.303,71.411 54.53,59.681 Z m 41.094,0.021 13.41,7.744 -6.674,-11.634 z M 28.378,71.353 41.821,63.59 35.073,59.695 Z M 57.101,58.197 63.869,69.919 V 54.289 Z M 66.838,69.899 73.58,58.222 66.838,54.329 Z M 77.635,57.135 85.883,61.898 94.11,57.147 85.893,42.83 Z M 36.552,57.121 44.789,61.878 53.046,57.109 44.78,42.793 Z M 87.611,39.857 96.681,55.663 123.223,40.339 96.305,24.798 Z m -20.773,11.045 8.226,4.75 9.12,-15.8 L 66.838,9.621 Z M 7.484,40.339 33.98,55.637 43.064,39.82 34.393,24.803 Z m 39.006,-0.521 9.127,15.808 8.252,-4.764 V 9.556 Z M 85.902,36.879 93.734,23.314 70.379,9.83 Z M 36.965,23.318 44.773,36.845 60.271,9.863 Z"
                 style="fill:url(#linearGradient851);stroke:none"
                 id="path853" />
            </g>
          </g>
        </g>
      </g>
    </g>
  </g>
</svg>
